<svg xmlns="http://www.w3.org/2000/svg" xmlns:xlink="http://www.w3.org/1999/xlink" width="294" zoomAndPan="magnify" viewBox="0 0 220.5 74.999997" height="100" preserveAspectRatio="xMidYMid meet" version="1.2"><defs><clipPath id="51c7bebefb"><path d="M 7.40625 10.707031 L 214.460938 10.707031 L 214.460938 73.359375 L 7.40625 73.359375 Z M 7.40625 10.707031 "/></clipPath><clipPath id="96fd1084f4"><path d="M 17.882812 10.707031 L 203.75 10.707031 C 206.527344 10.707031 209.191406 11.808594 211.15625 13.773438 C 213.121094 15.738281 214.222656 18.402344 214.222656 21.179688 L 214.222656 62.882812 C 214.222656 65.664062 213.121094 68.328125 211.15625 70.292969 C 209.191406 72.257812 206.527344 73.359375 203.75 73.359375 L 17.882812 73.359375 C 15.105469 73.359375 12.441406 72.257812 10.476562 70.292969 C 8.511719 68.328125 7.40625 65.664062 7.40625 62.882812 L 7.40625 21.179688 C 7.40625 18.402344 8.511719 15.738281 10.476562 13.773438 C 12.441406 11.808594 15.105469 10.707031 17.882812 10.707031 Z M 17.882812 10.707031 "/></clipPath></defs><g id="356cc0aad0"><g clip-rule="nonzero" clip-path="url(#51c7bebefb)"><g clip-rule="nonzero" clip-path="url(#96fd1084f4)"><path style=" stroke:none;fill-rule:nonzero;fill:#ffffff;fill-opacity:1;" d="M 7.40625 10.707031 L 214.21875 10.707031 L 214.21875 73.359375 L 7.40625 73.359375 Z M 7.40625 10.707031 "/></g></g><g style="fill:#5271ff;fill-opacity:1;"><g transform="translate(24.201638, 44.840312)"><path style="stroke:none" d="M 1.015625 -10.765625 C 1.015625 -12.890625 1.472656 -14.78125 2.390625 -16.4375 C 3.304688 -18.101562 4.582031 -19.398438 6.21875 -20.328125 C 7.863281 -21.253906 9.726562 -21.71875 11.8125 -21.71875 C 14.363281 -21.71875 16.546875 -21.046875 18.359375 -19.703125 C 20.171875 -18.359375 21.382812 -16.523438 22 -14.203125 L 16.25 -14.203125 C 15.820312 -15.097656 15.210938 -15.78125 14.421875 -16.25 C 13.640625 -16.71875 12.75 -16.953125 11.75 -16.953125 C 10.132812 -16.953125 8.828125 -16.390625 7.828125 -15.265625 C 6.828125 -14.140625 6.328125 -12.640625 6.328125 -10.765625 C 6.328125 -8.890625 6.828125 -7.390625 7.828125 -6.265625 C 8.828125 -5.148438 10.132812 -4.59375 11.75 -4.59375 C 12.75 -4.59375 13.640625 -4.828125 14.421875 -5.296875 C 15.210938 -5.765625 15.820312 -6.445312 16.25 -7.34375 L 22 -7.34375 C 21.382812 -5.019531 20.171875 -3.1875 18.359375 -1.84375 C 16.546875 -0.507812 14.363281 0.15625 11.8125 0.15625 C 9.726562 0.15625 7.863281 -0.304688 6.21875 -1.234375 C 4.582031 -2.160156 3.304688 -3.453125 2.390625 -5.109375 C 1.472656 -6.765625 1.015625 -8.648438 1.015625 -10.765625 Z M 1.015625 -10.765625 "/></g></g><g style="fill:#5271ff;fill-opacity:1;"><g transform="translate(49.035878, 44.840312)"><path style="stroke:none" d="M 15.265625 -3.796875 L 7.25 -3.796875 L 5.96875 0 L 0.484375 0 L 8.265625 -21.484375 L 14.3125 -21.484375 L 22.09375 0 L 16.546875 0 Z M 13.921875 -7.828125 L 11.265625 -15.6875 L 8.625 -7.828125 Z M 13.921875 -7.828125 "/></g></g><g style="fill:#5271ff;fill-opacity:1;"><g transform="translate(73.105523, 44.840312)"><path style="stroke:none" d="M 12.84375 0 L 8.375 -8.109375 L 7.125 -8.109375 L 7.125 0 L 1.890625 0 L 1.890625 -21.484375 L 10.671875 -21.484375 C 12.367188 -21.484375 13.8125 -21.1875 15 -20.59375 C 16.195312 -20 17.09375 -19.1875 17.6875 -18.15625 C 18.28125 -17.125 18.578125 -15.976562 18.578125 -14.71875 C 18.578125 -13.289062 18.171875 -12.015625 17.359375 -10.890625 C 16.554688 -9.765625 15.367188 -8.96875 13.796875 -8.5 L 18.75 0 Z M 7.125 -11.8125 L 10.375 -11.8125 C 11.332031 -11.8125 12.050781 -12.046875 12.53125 -12.515625 C 13.007812 -12.984375 13.25 -13.644531 13.25 -14.5 C 13.25 -15.3125 13.007812 -15.953125 12.53125 -16.421875 C 12.050781 -16.890625 11.332031 -17.125 10.375 -17.125 L 7.125 -17.125 Z M 7.125 -11.8125 "/></g></g><g style="fill:#5271ff;fill-opacity:1;"><g transform="translate(94.575578, 44.840312)"><path style="stroke:none" d="M 7.125 -17.28125 L 7.125 -12.9375 L 14.140625 -12.9375 L 14.140625 -8.90625 L 7.125 -8.90625 L 7.125 -4.1875 L 15.046875 -4.1875 L 15.046875 0 L 1.890625 0 L 1.890625 -21.484375 L 15.046875 -21.484375 L 15.046875 -17.28125 Z M 7.125 -17.28125 "/></g></g><g style="fill:#5271ff;fill-opacity:1;"><g transform="translate(112.65087, 44.840312)"><path style="stroke:none" d="M 7.125 -17.28125 L 7.125 -12.9375 L 14.140625 -12.9375 L 14.140625 -8.90625 L 7.125 -8.90625 L 7.125 -4.1875 L 15.046875 -4.1875 L 15.046875 0 L 1.890625 0 L 1.890625 -21.484375 L 15.046875 -21.484375 L 15.046875 -17.28125 Z M 7.125 -17.28125 "/></g></g><g style="fill:#5271ff;fill-opacity:1;"><g transform="translate(130.726161, 44.840312)"><path style="stroke:none" d="M 12.84375 0 L 8.375 -8.109375 L 7.125 -8.109375 L 7.125 0 L 1.890625 0 L 1.890625 -21.484375 L 10.671875 -21.484375 C 12.367188 -21.484375 13.8125 -21.1875 15 -20.59375 C 16.195312 -20 17.09375 -19.1875 17.6875 -18.15625 C 18.28125 -17.125 18.578125 -15.976562 18.578125 -14.71875 C 18.578125 -13.289062 18.171875 -12.015625 17.359375 -10.890625 C 16.554688 -9.765625 15.367188 -8.96875 13.796875 -8.5 L 18.75 0 Z M 7.125 -11.8125 L 10.375 -11.8125 C 11.332031 -11.8125 12.050781 -12.046875 12.53125 -12.515625 C 13.007812 -12.984375 13.25 -13.644531 13.25 -14.5 C 13.25 -15.3125 13.007812 -15.953125 12.53125 -16.421875 C 12.050781 -16.890625 11.332031 -17.125 10.375 -17.125 L 7.125 -17.125 Z M 7.125 -11.8125 "/></g></g><g style="fill:#5271ff;fill-opacity:1;"><g transform="translate(152.196217, 44.840312)"><path style="stroke:none" d="M 4.34375 0.25 C 3.425781 0.25 2.675781 -0.0195312 2.09375 -0.5625 C 1.507812 -1.101562 1.21875 -1.769531 1.21875 -2.5625 C 1.21875 -3.382812 1.507812 -4.070312 2.09375 -4.625 C 2.675781 -5.175781 3.425781 -5.453125 4.34375 -5.453125 C 5.238281 -5.453125 5.976562 -5.175781 6.5625 -4.625 C 7.144531 -4.070312 7.4375 -3.382812 7.4375 -2.5625 C 7.4375 -1.769531 7.144531 -1.101562 6.5625 -0.5625 C 5.976562 -0.0195312 5.238281 0.25 4.34375 0.25 Z M 4.34375 0.25 "/></g></g><g style="fill:#5271ff;fill-opacity:1;"><g transform="translate(162.350392, 44.840312)"><path style="stroke:none" d="M 7.125 -21.484375 L 7.125 0 L 1.890625 0 L 1.890625 -21.484375 Z M 7.125 -21.484375 "/></g></g><g style="fill:#5271ff;fill-opacity:1;"><g transform="translate(172.902149, 44.840312)"><path style="stroke:none" d="M 9.9375 -21.484375 C 12.207031 -21.484375 14.1875 -21.03125 15.875 -20.125 C 17.570312 -19.226562 18.882812 -17.96875 19.8125 -16.34375 C 20.738281 -14.726562 21.203125 -12.859375 21.203125 -10.734375 C 21.203125 -8.640625 20.738281 -6.773438 19.8125 -5.140625 C 18.882812 -3.503906 17.566406 -2.238281 15.859375 -1.34375 C 14.160156 -0.445312 12.1875 0 9.9375 0 L 1.890625 0 L 1.890625 -21.484375 Z M 9.609375 -4.53125 C 11.585938 -4.53125 13.125 -5.066406 14.21875 -6.140625 C 15.320312 -7.222656 15.875 -8.753906 15.875 -10.734375 C 15.875 -12.710938 15.320312 -14.253906 14.21875 -15.359375 C 13.125 -16.460938 11.585938 -17.015625 9.609375 -17.015625 L 7.125 -17.015625 L 7.125 -4.53125 Z M 9.609375 -4.53125 "/></g></g><g style="fill:#5271ff;fill-opacity:1;"><g transform="translate(26.335489, 61.816874)"><path style="stroke:none" d="M 3.546875 -10.703125 L 3.546875 0 L 0.953125 0 L 0.953125 -10.703125 Z M 3.546875 -10.703125 "/></g></g><g style="fill:#5271ff;fill-opacity:1;"><g transform="translate(36.86726, 61.816874)"><path style="stroke:none" d="M 10.515625 0 L 7.921875 0 L 3.546875 -6.609375 L 3.546875 0 L 0.953125 0 L 0.953125 -10.703125 L 3.546875 -10.703125 L 7.921875 -4.078125 L 7.921875 -10.703125 L 10.515625 -10.703125 Z M 10.515625 0 "/></g></g><g style="fill:#5271ff;fill-opacity:1;"><g transform="translate(54.361392, 61.816874)"><path style="stroke:none" d="M 4.953125 -10.703125 C 6.085938 -10.703125 7.078125 -10.476562 7.921875 -10.03125 C 8.765625 -9.582031 9.414062 -8.953125 9.875 -8.140625 C 10.332031 -7.335938 10.5625 -6.410156 10.5625 -5.359375 C 10.5625 -4.304688 10.332031 -3.375 9.875 -2.5625 C 9.414062 -1.75 8.757812 -1.117188 7.90625 -0.671875 C 7.0625 -0.222656 6.078125 0 4.953125 0 L 0.953125 0 L 0.953125 -10.703125 Z M 4.78125 -2.25 C 5.769531 -2.25 6.539062 -2.519531 7.09375 -3.0625 C 7.644531 -3.601562 7.921875 -4.367188 7.921875 -5.359375 C 7.921875 -6.335938 7.644531 -7.101562 7.09375 -7.65625 C 6.539062 -8.207031 5.769531 -8.484375 4.78125 -8.484375 L 3.546875 -8.484375 L 3.546875 -2.25 Z M 4.78125 -2.25 "/></g></g><g style="fill:#5271ff;fill-opacity:1;"><g transform="translate(71.474647, 61.816874)"><path style="stroke:none" d="M 6.015625 0.109375 C 5.003906 0.109375 4.078125 -0.125 3.234375 -0.59375 C 2.398438 -1.0625 1.734375 -1.710938 1.234375 -2.546875 C 0.742188 -3.390625 0.5 -4.335938 0.5 -5.390625 C 0.5 -6.429688 0.742188 -7.367188 1.234375 -8.203125 C 1.734375 -9.035156 2.398438 -9.6875 3.234375 -10.15625 C 4.078125 -10.625 5.003906 -10.859375 6.015625 -10.859375 C 7.015625 -10.859375 7.929688 -10.625 8.765625 -10.15625 C 9.609375 -9.6875 10.269531 -9.035156 10.75 -8.203125 C 11.238281 -7.367188 11.484375 -6.429688 11.484375 -5.390625 C 11.484375 -4.335938 11.238281 -3.390625 10.75 -2.546875 C 10.257812 -1.710938 9.597656 -1.0625 8.765625 -0.59375 C 7.929688 -0.125 7.015625 0.109375 6.015625 0.109375 Z M 6.015625 -2.265625 C 6.867188 -2.265625 7.550781 -2.550781 8.0625 -3.125 C 8.570312 -3.695312 8.828125 -4.453125 8.828125 -5.390625 C 8.828125 -6.328125 8.570312 -7.078125 8.0625 -7.640625 C 7.550781 -8.210938 6.867188 -8.5 6.015625 -8.5 C 5.148438 -8.5 4.457031 -8.21875 3.9375 -7.65625 C 3.425781 -7.09375 3.171875 -6.335938 3.171875 -5.390625 C 3.171875 -4.441406 3.425781 -3.679688 3.9375 -3.109375 C 4.457031 -2.546875 5.148438 -2.265625 6.015625 -2.265625 Z M 6.015625 -2.265625 "/></g></g><g style="fill:#5271ff;fill-opacity:1;"><g transform="translate(89.486766, 61.816874)"><path style="stroke:none" d="M 10.515625 0 L 7.921875 0 L 3.546875 -6.609375 L 3.546875 0 L 0.953125 0 L 0.953125 -10.703125 L 3.546875 -10.703125 L 7.921875 -4.078125 L 7.921875 -10.703125 L 10.515625 -10.703125 Z M 10.515625 0 "/></g></g><g style="fill:#5271ff;fill-opacity:1;"><g transform="translate(106.980898, 61.816874)"><path style="stroke:none" d="M 3.546875 -8.609375 L 3.546875 -6.453125 L 7.046875 -6.453125 L 7.046875 -4.4375 L 3.546875 -4.4375 L 3.546875 -2.09375 L 7.5 -2.09375 L 7.5 0 L 0.953125 0 L 0.953125 -10.703125 L 7.5 -10.703125 L 7.5 -8.609375 Z M 3.546875 -8.609375 "/></g></g><g style="fill:#5271ff;fill-opacity:1;"><g transform="translate(121.260465, 61.816874)"><path style="stroke:none" d="M 4.8125 0.109375 C 4.03125 0.109375 3.328125 -0.015625 2.703125 -0.265625 C 2.085938 -0.523438 1.59375 -0.90625 1.21875 -1.40625 C 0.851562 -1.90625 0.660156 -2.503906 0.640625 -3.203125 L 3.421875 -3.203125 C 3.460938 -2.804688 3.597656 -2.503906 3.828125 -2.296875 C 4.054688 -2.085938 4.363281 -1.984375 4.75 -1.984375 C 5.132812 -1.984375 5.4375 -2.070312 5.65625 -2.25 C 5.882812 -2.425781 6 -2.671875 6 -2.984375 C 6 -3.253906 5.90625 -3.472656 5.71875 -3.640625 C 5.539062 -3.816406 5.320312 -3.957031 5.0625 -4.0625 C 4.8125 -4.175781 4.445312 -4.304688 3.96875 -4.453125 C 3.269531 -4.660156 2.703125 -4.867188 2.265625 -5.078125 C 1.828125 -5.296875 1.453125 -5.613281 1.140625 -6.03125 C 0.828125 -6.457031 0.671875 -7.003906 0.671875 -7.671875 C 0.671875 -8.671875 1.03125 -9.453125 1.75 -10.015625 C 2.476562 -10.578125 3.421875 -10.859375 4.578125 -10.859375 C 5.753906 -10.859375 6.703125 -10.578125 7.421875 -10.015625 C 8.148438 -9.453125 8.535156 -8.664062 8.578125 -7.65625 L 5.765625 -7.65625 C 5.742188 -8 5.613281 -8.269531 5.375 -8.46875 C 5.144531 -8.664062 4.847656 -8.765625 4.484375 -8.765625 C 4.171875 -8.765625 3.914062 -8.679688 3.71875 -8.515625 C 3.53125 -8.347656 3.4375 -8.109375 3.4375 -7.796875 C 3.4375 -7.453125 3.597656 -7.179688 3.921875 -6.984375 C 4.242188 -6.785156 4.75 -6.578125 5.4375 -6.359375 C 6.132812 -6.128906 6.695312 -5.90625 7.125 -5.6875 C 7.5625 -5.476562 7.9375 -5.164062 8.25 -4.75 C 8.5625 -4.34375 8.71875 -3.820312 8.71875 -3.1875 C 8.71875 -2.570312 8.5625 -2.015625 8.25 -1.515625 C 7.945312 -1.023438 7.5 -0.628906 6.90625 -0.328125 C 6.320312 -0.0351562 5.625 0.109375 4.8125 0.109375 Z M 4.8125 0.109375 "/></g></g><g style="fill:#5271ff;fill-opacity:1;"><g transform="translate(136.667407, 61.816874)"><path style="stroke:none" d="M 3.546875 -10.703125 L 3.546875 0 L 0.953125 0 L 0.953125 -10.703125 Z M 3.546875 -10.703125 "/></g></g><g style="fill:#5271ff;fill-opacity:1;"><g transform="translate(147.199178, 61.816874)"><path style="stroke:none" d="M 7.609375 -1.890625 L 3.609375 -1.890625 L 2.96875 0 L 0.25 0 L 4.125 -10.703125 L 7.140625 -10.703125 L 11.015625 0 L 8.25 0 Z M 6.9375 -3.90625 L 5.609375 -7.828125 L 4.296875 -3.90625 Z M 6.9375 -3.90625 "/></g></g></g></svg>